# xmcd CD database file
#
# Track frame offsets:
#	150
#	19952
#	33465
#	49592
#	63426
#	77029
#	92509
#	105711
#	115678
#	135864
#	148092
#	162516
#	175575
#	190922
#	204529
#	217364
#	229637
#	242474
#	255160
#	265260
#	279143
#	294459
#	305995
#	322378
#	339269
#
# Disc length: 4748 seconds
#
# Revision: 0
# Processed by: cddbd v1.5.2PL0 Copyright (c) Steve Scherf et al.
# Submitted via: CDex 1.70beta2
#
DISCID=68128a19
DTITLE=Big Matt Hurter - Keepin It Country
DYEAR=1980
DGENRE=Country
TTITLE0=I'LL BE TRUE TO YOU
TTITLE1=YOU'RE MY BEST FRIEND
TTITLE2=LUCILLE
TTITLE3=WOMAN, BEAUTIFULL WOMAN
TTITLE4=LAURA
TTITLE5=THE GAMBLER
TTITLE6=I RECALL A GYPSY WOMAN
TTITLE7=SOME BROKEN HEARTS NEVER MEND
TTITLE8=SUNDAY MORNING COMING DOWN
TTITLE9=WHY ME LORD
TTITLE10=FIGHTING SIDE OF ME
TTITLE11=THE LITTLEST COWBOY
TTITLE12=BIG BAD JOHN 
TTITLE13=I'M ALREADY TAKEN 
TTITLE14=TEQUILA SHEILA 
TTITLE15=NINETEEN SIXTY NINE
TTITLE16=THIRTY NINE AND HOLDING 
TTITLE17=JUST ALONG FOR THE RIDE 
TTITLE18=I'VE COME A LONG WAY 
TTITLE19=DIG A LITTLE HARDER 
TTITLE20=IF I HEARD YOU CALL MY NAME 
TTITLE21=DUNCAN 
TTITLE22=A COUPLE MORE YEARS 
TTITLE23=A WORD CALLED LOVE 
TTITLE24=A TRAIN TO KIMBERLEY 
EXTD=YEAR: 1980
EXTT0=
EXTT1=
EXTT2=
EXTT3=
EXTT4=
EXTT5=
EXTT6=
EXTT7=
EXTT8=
EXTT9=
EXTT10=
EXTT11=
EXTT12=
EXTT13=
EXTT14=
EXTT15=
EXTT16=
EXTT17=
EXTT18=
EXTT19=
EXTT20=
EXTT21=
EXTT22=
EXTT23=
EXTT24=
PLAYORDER=
